<?xml version="1.0" encoding="utf-8"?>
<!-- Generator: Adobe Illustrator 26.2.1, SVG Export Plug-In . SVG Version: 6.00 Build 0)  -->
<svg version="1.1" id="Capa_1" xmlns="http://www.w3.org/2000/svg" xmlns:xlink="http://www.w3.org/1999/xlink" x="0px" y="0px"
	 viewBox="0 0 1080 254.2" style="enable-background:new 0 0 1080 254.2;" xml:space="preserve">
<g>
	<path d="M644.4,152.9c-1.4,0-2.7,0.4-3.8,1.2c-2.4,1.6-4.7,2.9-6.8,3.8c-2.1,0.9-4.4,1.4-6.7,1.4c-0.8,0-1.6,0-2.3-0.2
		c-0.7-0.1-1.5-0.3-2.3-0.5c-0.3-4.3-1.4-8.3-3.3-12.1c-1.9-3.8-4.6-6.8-8.3-9c-0.2-1.6-0.8-2.9-1.9-4c-1.1-1-2.3-1.7-3.7-2.2
		c-1.4-0.5-2.9-0.8-4.3-0.9c-1.5-0.2-2.8-0.2-3.9-0.2c-4.1,0-7.9,0.8-11.5,2.4c-3.6,1.6-6.9,3.8-9.6,6.5c-2.8,2.7-5,5.8-6.6,9.3
		c-1.3,2.8-2.1,5.7-2.3,8.6c-1.9,2.6-3.7,4.5-5.5,5.9c-2.1,1.6-4.5,2.4-7.4,2.4c-2.2,0-4.1-0.8-5.5-2.3c-1.5-1.5-2.6-3.4-3.5-5.8
		c-0.9-2.3-1.5-4.9-1.8-7.6c-0.4-2.7-0.5-5.4-0.5-7.9c0-6.8,0.4-12.8,1.1-18c0.7-5.2,1.5-10.2,2.3-14.8c0.8-4.7,1.5-9.3,2.2-14.1
		c0.7-4.7,1-10,1-15.7c0-1.8,0-4.5-0.1-8c-0.1-3.5-0.2-7.3-0.5-11.5c-0.3-4.2-0.6-8.4-1.1-12.8c-0.5-4.4-1.1-8.3-1.8-11.9
		c-0.8-3.5-1.7-6.5-2.9-8.7c-1.2-2.3-2.6-3.4-4.2-3.4c-2.2,0-4.1,0.4-5.5,1.3c-1.4,0.9-2.1,2.2-2.1,3.9c0.4,3.7,0.8,7.8,1.3,12.2
		s0.9,8.9,1.2,13.4c0.4,4.5,0.7,9,0.9,13.4c0.3,4.4,0.4,8.4,0.4,12.1c0,5.6-0.2,10.7-0.7,15.3c-0.4,4.6-1,8.9-1.6,12.9
		c-0.6,4-1.3,7.8-1.9,11.3c-0.6,3.5-1.2,7-1.6,10.5c-1.4-1.2-3.2-2.5-5.5-3.7c-2.2-1.3-4.9-1.9-7.9-1.9c-3.2,0-6.2,0.7-8.7,2
		c-2.6,1.3-4.8,3.1-6.6,5.4c-1.8,2.3-3.2,4.9-4.3,7.9c-1,3-1.5,6.1-1.5,9.3c0,2,0.3,4.4,0.7,7.1c-1.7,1.1-3.4,1.9-5,2.6
		c-2.1,0.9-4.4,1.4-6.7,1.4c-0.8,0-1.6,0-2.3-0.2c-0.7-0.1-1.5-0.3-2.3-0.5c-0.3-4.3-1.4-8.3-3.3-12.1c-1.9-3.8-4.6-6.8-8.3-9
		c-0.2-1.6-0.8-2.9-1.9-4c-1.1-1-2.3-1.7-3.7-2.2c-1.4-0.5-2.9-0.8-4.3-0.9c-1.5-0.2-2.8-0.2-3.9-0.2c-4.1,0-7.9,0.8-11.5,2.4
		c-3.6,1.6-6.9,3.8-9.6,6.5c-2.8,2.7-5,5.8-6.6,9.3c-1.1,2.4-1.8,4.8-2.2,7.2c-0.3,0.2-0.7,0.4-1,0.5c-0.5,0.2-1,0.3-1.5,0.4
		c-0.6,0.1-1.2,0.1-1.9,0.1c-1.7,0-3.2-0.8-4.6-2.3c-1.3-1.5-2.6-3.4-3.9-5.7c-1.3-2.3-2.5-4.7-3.8-7.4c-1.3-2.6-2.7-5.1-4.2-7.4
		c-1.5-2.3-3.2-4.2-5.2-5.7c-1.9-1.5-4.2-2.3-6.7-2.3c-3.4,0-6.8,1.1-10,3.4c-3.2,2.3-6.2,5.2-8.8,8.7c-1.5-2.9-3.3-5.5-5.5-7.7
		c-2-2.1-4.5-3.2-7.5-3.3c-0.4-0.1-0.9-0.2-1.4-0.2c-17.3,0-34.5-0.3-51.8-1.1c-9.6-0.4-19.1-1-28.7-1.8c3.2-7.2,6-14.6,8.4-22
		c1.3-4,3.2-8.5,2.9-12.8c-0.2-2.9-1.3-5.9-3.6-7.8c-2.2-1.9-4.7-2.7-7.6-3.1c-3.9-0.5-8,0.6-11.8,1.6c-1.8,0.5-3.6,1-5.3,1.7
		c-1.5-3.7-3.7-7.1-6.6-10c-5.6-5.5-13-8.4-20.7-9.4c-0.9-2.5-1.8-4.9-2.9-7.3c-3.5-7.7-8.4-15.6-16-19.9
		c-8.1-4.5-18.2-4.4-25.2,2.1c-5.4,5-7.3,12.7-7.9,19.8c-0.2,2.5-0.2,5-0.1,7.5c-0.5-0.4-1.1-0.8-1.6-1.2
		c-14.2-10-28.8-21.4-46.3-24.9c-8.6-1.7-17.8-1.8-26.1,1.2c-4.1,1.5-8.8,3.5-11.5,7c-3.4,4.3-4,9.8-2,14.9c1.8,4.4,4.7,8,7.9,11.5
		c2.6,2.8,5.4,5.5,8.3,8c6.2,5.3,12.9,9.9,19.9,14c5.4,3.1,10.9,5.8,16.5,8.3c-5.1,5.9-9.5,12.5-12.7,19.6
		c-3.5,7.7-5.8,16.2-5.3,24.8c0.5,8.7,3.8,16.8,10.1,22.9c4.2,4.1,9.2,7,14.6,9.2c-1.5,2.7-2.9,5.5-3.9,8.4
		c-1.3,3.9-1.9,8.5-0.6,12.4c1.3,4,4,6.7,7.9,8.2c1.7,0.7,3.6,1,5.4,0.8c2-0.1,3.8-0.8,5.7-1.5c3.8-1.4,7.5-3,11.1-4.7
		c6.5-3.1,12.8-6.8,18.6-11c3.3-2.4,6.6-4.9,9.7-7.5c4.5-0.5,8.9-1.2,13.3-2c2.6,5.5,5.6,10.8,8.8,16c4.4,7.1,8.7,14.5,14,20.9
		c5.7,7,13.4,11.8,22.4,13c8.8,1.2,18.7-1.6,22.9-10.1c1.6-3.4,2.3-7,2.4-10.6c5.5,3.8,11.2,7.6,17.1,10.8c4,2.2,8.2,4.1,12.6,5.4
		c5.1,1.6,11.5,1.5,14.4-3.9c2.9-5.2-0.1-10.7-3.4-14.8c-3-3.8-6-7.5-9-11.3c-6-7.4-11.9-14.9-17.9-22.3
		c-10.8-13.5-21.5-27-32.4-40.4c11.6,1.1,23.3,1.8,34.9,2.4c16.2,0.7,32.4,1,48.5,1l0,0c0,0,2.3,0.3,3.8,1.7c0,0,0,0,0,0
		c0.7,1.1,1.4,2.3,1.6,2.8c0.5,1.5,0.8,3.3,1.1,5.5c0.3,2.2,0.5,4.6,0.8,7.1c0.3,2.6,0.8,5,1.4,7.1c0.6,2.2,1.5,4,2.7,5.5
		c1.2,1.5,2.8,2.2,4.9,2.2c1.6,0,2.9-0.3,3.8-0.8c0.9-0.6,1.6-1.3,2.1-2.4c0.5-1,0.8-2.1,1-3.3c0.2-1.2,0.2-2.5,0.2-4
		c0-1.7,0.3-3.7,0.9-5.9c0.6-2.2,1.3-4.3,2.2-6.3c0.9-2,1.8-3.6,2.7-4.9c1-1.3,1.8-2,2.7-2c1.5,0,2.8,0.7,3.7,2.1
		c1,1.4,1.9,3.2,2.9,5.2c1,2.1,2,4.3,3.1,6.8c1.1,2.4,2.6,4.7,4.4,6.8c1.8,2.1,4.2,3.8,7,5.2c2.8,1.4,6.4,2.1,10.8,2.1
		c2.2,0,4.2-0.1,5.9-0.4c0,0,0,0,0,0c1.2,3.3,3,6.3,5.5,9c2.4,2.7,5.5,4.9,9.2,6.6c3.7,1.7,8.1,2.6,13.1,2.6c7,0,12.5-1.5,16.6-4.6
		c4.1-3.1,6.9-7.4,8.5-12.8c1.4,0.3,2.9,0.6,4.3,0.8c1.5,0.2,2.9,0.3,4.3,0.3c1.8,0,3.9-0.2,6.3-0.6c2.4-0.4,4.6-1.1,6.8-2
		c0.1,0,0.2-0.1,0.2-0.1c1.5,2.3,3.4,4.4,5.6,6.2c2.8,2.2,6.2,3.3,10.4,3.3c4.2,0,8-1,11.3-3c3.3-2,5.7-4.9,7.4-8.7
		c1.4,4.3,3.8,7.7,7.2,10.3c3.4,2.6,7.2,3.9,11.4,3.9c3,0,5.9-0.6,8.5-1.7c2.6-1.1,5-2.5,7.2-4.2c0.5-0.4,0.9-0.7,1.4-1.1
		c1,1.7,2.2,3.4,3.6,4.9c2.4,2.7,5.5,4.9,9.2,6.6c3.7,1.7,8.1,2.6,13.1,2.6c7,0,12.5-1.5,16.6-4.6c4.1-3.1,6.9-7.4,8.5-12.8
		c1.4,0.3,2.9,0.6,4.3,0.8c1.5,0.2,2.9,0.3,4.3,0.3c1.8,0,3.9-0.2,6.3-0.6c2.4-0.4,4.6-1.1,6.8-2c2.1-0.9,3.9-2.1,5.4-3.6
		c1.5-1.5,2.2-3.2,2.2-5.2c0-1.2-0.5-2.6-1.5-4.2C648.4,153.6,646.7,152.9,644.4,152.9z M324.2,219.9
		C324.2,219.9,324.2,219.9,324.2,219.9C324.1,220.1,324.1,220.3,324.2,219.9z M277,89.8C277,89.8,277,89.8,277,89.8
		c0,0.1,0,0.2,0,0.2C277,89.8,277,89.7,277,89.8C277,89.7,277,89.7,277,89.8z M254.9,133.5c1,1.1,2.1,2.3,3.1,3.4
		c-1.2,2.2-2.4,4.4-3.7,6.5c-0.4,0.7-0.8,1.3-1.2,2c-0.3-0.6-0.5-1.2-0.8-1.8c-0.1-0.2-0.1-0.3-0.2-0.5c-0.1-0.3-0.3-0.7-0.4-1
		c-0.4-0.9-0.8-1.8-1.1-2.8c-0.7-1.7-1.4-3.5-2.1-5.2c0.3-0.5,0.6-0.9,0.9-1.4C251.1,133,253,133.3,254.9,133.5z M251.1,99.9
		c0,0.1,0,0.1,0,0.2c-0.1,0.9-0.3,1.8-0.5,2.7c-0.4,1.7-0.9,3.5-1.5,5.2c-0.1,0.3-0.2,0.6-0.4,0.9c-0.1,0.1-0.1,0.3-0.1,0.3
		c-0.3,0.7-0.6,1.4-1,2c-2.3-1.7-4.7-3.5-7.1-5.2c3.5-2.5,7-4.9,10.7-7C251.2,99.4,251.1,99.6,251.1,99.9z M236.7,75
		c0.7,0.2,1.5,0.4,2.2,0.7c0.1,0,0.2,0.1,0.3,0.1c0.4,0.3,1,0.5,1.4,0.7c0.8,0.4,1.5,0.8,2.3,1.3c0.3,0.2,0.7,0.4,1,0.7
		c0.2,0.1,0.3,0.3,0.5,0.4c0,0-0.1,0-0.1,0c0.7,0.6,1.3,1.2,1.9,1.8c0.3,0.3,0.5,0.6,0.8,0.8c0,0,0.1,0.1,0.2,0.2
		c-0.1-0.2-0.2-0.4,0.1,0.1c0,0.1,0.1,0.1,0.1,0.2c0.1,0.1,0.1,0.1,0.1,0.1c0,0,0,0-0.1-0.1c0.9,1.3,1.6,2.6,2.3,4
		c0,0.1,0,0.1,0.1,0.2c0,0,0,0.1,0,0.1c-5,2.5-9.7,5.4-14.2,8.6c0.9-4.8,1.7-9.6,1.6-14.4C237.1,78.6,237,76.8,236.7,75z
		 M234.8,113.7c-0.1-0.1-0.2-0.2-0.3-0.4c0,0,0,0,0,0C234.6,113.4,234.7,113.6,234.8,113.7z M232.1,74c0.1,0,0.2,0,0.3,0
		c0,0,0.1,0,0.1,0C231.6,74.1,231.8,74,232.1,74z M222.2,74.2c0.1,0,0.3,0,0.4-0.1c0.1,0,0.1,0,0.2,0c0.5-0.1,1.1-0.1,1.6-0.1
		c0.2,0.9,0.4,1.9,0.5,2.8c0.1,0.5,0.3,1.1,0.3,1.6c0,0.1-0.1-1.3-0.1-0.7c0,0.2,0,0.3,0,0.5c0.1,0.8,0.1,1.7,0.1,2.5
		c0,1.7-0.1,3.4-0.3,5.1c0,0.1,0,0.3-0.1,0.5c0,0.3-0.1,0.6-0.1,0.8c-0.1,0.9-0.3,1.8-0.4,2.7c-0.2,1.4-0.5,2.8-0.8,4.3
		c-6.9-4.8-13.7-9.7-20.6-14.5c3.7-1.4,7.5-2.6,11.3-3.6c2.2-0.6,4.4-1.1,6.6-1.5C221.2,74.3,221.7,74.3,222.2,74.2z M220.5,106.6
		c-1.6,1.4-3.2,2.8-4.8,4.2c-0.7,0.6-1.4,1.2-2,1.8c-3.7-1-7.4-2-11.1-3.1c-0.7-2.1-1.4-4.1-2.1-6.2C199.2,99,198,94.5,197,90
		C204.8,95.6,212.7,101.1,220.5,106.6z M193.5,56.7c0-0.3,0.1-0.7,0.1-1c0,0,0,0,0,0c0.1-0.8,0.3-1.7,0.5-2.5
		c0.2-0.7,0.4-1.4,0.6-2.1c0.1-0.4,0.2-0.7,0.4-1.1c0-0.1,0.1-0.1,0.1-0.2c0.3-0.6,0.6-1.2,0.9-1.7c0.2-0.3,0.3-0.5,0.5-0.8
		c0.1-0.1,0.1-0.2,0.2-0.2c0.5-0.5,0.9-1,1.4-1.4c0,0,0,0,0,0c0.2-0.1,0.6-0.5,0.8-0.5c0.3-0.2,0.7-0.4,1-0.5
		c0.4-0.1,0.9-0.3,1.3-0.4c0.2,0,0.3-0.1,0.5-0.1c0.8,0,1.6,0,2.3,0c0,0-0.1,0-0.1,0c0,0,0.1,0,0.2,0.1c0.1,0,0.1,0,0.2,0
		c0.2,0,0.3,0.1,0.3,0.1c0.5,0.1,1,0.2,1.5,0.4c0.4,0.1,0.8,0.3,1.1,0.4c0.1,0.1,0.2,0.1,0.4,0.2c0.9,0.4,1.7,0.9,2.5,1.5
		c0.1,0,0.2,0.1,0.2,0.2c0,0,0,0,0.1,0.1c0.4,0.3,0.8,0.6,1.1,1c0.7,0.7,1.4,1.4,2.1,2.1c0.2,0.2,0.4,0.4,0.5,0.7
		c0,0.1,0.2,0.2,0.2,0.3c0.1,0.2,0.3,0.4,0.4,0.5c0.6,0.8,1.1,1.7,1.6,2.5c1.1,1.8,2.1,3.6,3,5.5c0.2,0.4,0.4,0.8,0.6,1.3
		c0.1,0.3,0.3,0.6,0.4,0.9c0.1,0.1,0.3,0.9,0.1,0.1c-0.3-0.7,0,0,0.1,0.2c0.1,0.2,0.2,0.4,0.2,0.6c-5.9,0.8-11.6,2.4-17.2,4.3
		c-3.3,1.1-6.6,2.3-9.8,3.6c-0.1-1-0.2-2.1-0.3-3.1C193.3,63.6,193.2,60.2,193.5,56.7z M184.3,88c1.1,5.7,2.5,11.4,4.2,17
		c0,0.1,0.1,0.3,0.1,0.4c-3.1-1-6.3-1.9-9.4-2.9c-3.7-1.2-7.4-2.4-11.1-3.7c0.3-0.3,0.6-0.5,0.9-0.8c0.1-0.1,0.9-0.7,0.9-0.7
		c0.1-0.1,0.3-0.2,0.4-0.3c1.4-1.1,2.9-2.1,4.4-3.1C177.9,91.8,181,89.9,184.3,88z M104.9,54.1c0,0-0.1,0.1-0.1,0.1
		C104.9,54.1,104.9,54.1,104.9,54.1z M137.2,85.1c-3.3-1.9-6.5-3.8-9.7-6c-1.6-1.1-3.2-2.2-4.8-3.4c-0.3-0.2-0.5-0.4-0.8-0.6
		c-0.2-0.1-0.3-0.2-0.5-0.4c-0.8-0.6-1.5-1.2-2.3-1.9c-2.9-2.4-5.6-5-8.2-7.7c-0.6-0.7-1.2-1.3-1.9-2c-0.3-0.4-0.7-0.7-1-1.1
		c-0.1-0.2-0.3-0.4-0.5-0.7c0,0.1-0.1,0-0.3-0.2c0-0.1-0.1-0.1-0.1-0.2c0,0,0,0,0,0c0,0,0,0,0,0c-0.1-0.1-0.2-0.2-0.2-0.3
		c-0.3-0.4-0.6-0.8-0.8-1.3c-0.2-0.4-0.4-0.7-0.6-1.1c-0.1-0.2-0.2-0.4-0.3-0.6c0,0,0,0.1,0,0.1c0,0,0-0.1,0-0.1
		c-0.2-0.4-0.2-0.5-0.1-0.4c-0.1-0.2-0.2-0.4-0.3-0.6c-0.1-0.2-0.2-0.9-0.2-1c0-0.1,0-0.2,0-0.3c0-0.1,0-0.2,0-0.4
		c0-0.1,0-0.1,0.1-0.2c0,0,0,0-0.1,0c0,0,0,0,0,0c0,0,0-0.1,0.1-0.1c0,0,0-0.1,0-0.1c0,0,0.1-0.1,0.1-0.1c0-0.1,0.1-0.1,0.1-0.2
		c0,0,0,0,0,0c0,0,0,0.1,0,0.1c0.2-0.2,0.4-0.5,0.6-0.7c0,0,0.1,0,0.1-0.1c-0.2,0.1-0.3,0.1,0.1-0.1c0,0,0,0,0,0c0,0,0,0,0.1-0.1
		c0,0,0,0,0,0c0.7-0.4,1.5-0.9,2.2-1.3c0.4-0.2,0.9-0.4,1.4-0.7c0,0,0,0,0.1,0c0.2-0.1,0.5-0.2,0.5-0.2c1.8-0.7,3.7-1.2,5.6-1.6
		c0.4-0.1,0.8-0.2,1.3-0.2c0,0,0.1,0,0.1,0c0.1,0,0.1,0,0.2-0.1c0.1,0,0.1,0,0.2,0c0,0,0.1,0,0.1,0c0,0,0,0,0,0
		c0.9-0.1,1.8-0.2,2.7-0.2c2-0.1,3.9,0,5.9,0.1c0.5,0,1,0.1,1.5,0.1c0.1,0,0.1,0,0.1,0c0,0,0,0,0,0c1,0.2,2,0.3,3,0.5
		c2,0.4,4,0.9,5.9,1.6c0.9,0.3,1.8,0.6,2.8,1c0.4,0.2,0.9,0.3,1.3,0.5c0.2,0.1,1.1,0.5,0.3,0.1c-0.7-0.3,0.2,0.1,0.3,0.2
		c1.9,0.8,3.8,1.7,5.6,2.7c3.7,2,7.4,4.2,10.9,6.5c7.2,4.7,14.1,9.8,21.1,14.8c-5.4,3-10.6,6.3-15.6,10.1c-2.7,2.1-5.3,4.3-7.8,6.6
		c-0.3-0.1-0.6-0.3-1-0.4c-0.1,0-0.2-0.1-0.2-0.1c-0.5-0.2-1-0.4-1.6-0.7c-1.8-0.8-3.5-1.6-5.2-2.4C144.1,88.8,140.6,87,137.2,85.1z
		 M157.8,168.7c-0.1-0.1-0.3-0.1-0.4-0.2c0,0,0.1,0,0.1,0c0.1,0,0.1,0,0.2,0.1c-0.9-0.5-0.6-0.3-0.3-0.1c-0.1,0-0.2-0.1-0.2-0.1
		c-1.6-0.7-3.2-1.5-4.7-2.4c-0.7-0.4-1.4-0.9-2.1-1.4c-0.3-0.2-0.6-0.4-0.9-0.6c-0.1-0.1-0.3-0.2-0.4-0.3c-1.4-1.1-2.7-2.4-3.8-3.8
		c-0.1-0.1-0.1-0.1-0.1-0.2c-0.2-0.3-0.5-0.6-0.7-0.9c-0.5-0.8-1-1.6-1.4-2.4c-0.2-0.4-0.4-0.7-0.5-1.1c0-0.1-0.1-0.2-0.1-0.3
		c-0.3-0.9-0.6-1.7-0.9-2.6c-0.2-0.8-0.4-1.7-0.6-2.6c0-0.1-0.1-0.3-0.1-0.4c0-0.4-0.1-0.8-0.1-1.2c-0.1-1.8-0.1-3.7,0-5.5
		c0-0.5,0.1-1,0.1-1.4c0-0.1,0-0.2,0-0.4c0.2-0.9,0.3-1.9,0.5-2.8c0.4-1.9,0.9-3.7,1.5-5.5c0.3-0.9,0.6-1.7,0.9-2.6
		c0.1-0.2,0.1-0.4,0.2-0.5c0.2-0.4,0.3-0.8,0.5-1.1c0.8-1.7,1.7-3.4,2.6-5.1c1.8-3.1,3.7-6.1,5.8-8.9c0.1-0.1,0.2-0.2,0.2-0.3
		c0.2-0.3,0.4-0.5,0.6-0.8c0.6-0.7,1.2-1.4,1.8-2.1c0.9-1,1.8-2.1,2.7-3.1c5.4,2,10.8,3.9,16.2,5.7c6.3,2,12.6,4,19,5.8
		c1.1,2.7,2.3,5.5,3.5,8.1c-5.3,5-10.5,10.1-15.4,15.5c-2.4,2.6-4.5,5.4-6.7,8.1c-4.5,5.6-9.1,11.2-13.5,16.9
		c-0.4,0.5-0.8,1-1.1,1.5c-0.5-0.2-1.1-0.4-1.6-0.6c-0.3-0.1-0.6-0.2-0.9-0.4C157.7,168.6,157.8,168.6,157.8,168.7z M160.4,197.4
		C160.4,197.4,160.4,197.4,160.4,197.4C160.4,197.4,160.4,197.5,160.4,197.4C160.4,197.4,160.4,197.4,160.4,197.4z M160.6,197.6
		c0.1,0.1,0.1,0.1,0.1,0.1C160.7,197.7,160.6,197.6,160.6,197.6z M181.7,188.4c-3.1,1.8-6.3,3.5-9.5,5c-0.8,0.4-1.5,0.7-2.3,1.1
		c-0.4,0.2-0.7,0.3-1.1,0.5c-0.2,0.1-0.4,0.1-0.5,0.2c0,0,0.1,0,0.1,0c-1.6,0.7-3.2,1.3-4.8,1.9c-0.7,0.2-1.4,0.5-2.1,0.7
		c-0.1,0-0.2,0-0.2,0c0,0,0,0,0,0c-0.1,0-0.2-0.1-0.3-0.1c0.1,0,0.1,0.1,0.1,0.1c0,0,0,0,0,0c0,0-0.1,0-0.3-0.1
		c-0.1,0-0.2-0.1-0.3-0.2c0,0,0,0,0,0c0,0,0,0,0,0c0,0,0,0,0,0c0,0,0,0,0,0c0,0,0,0,0,0c0,0,0,0,0,0c0,0,0,0,0,0c0,0,0,0,0,0
		c0,0,0,0,0,0c0,0,0,0,0,0c0,0,0,0,0,0c0-0.1-0.1-0.2-0.1-0.2c0,0,0,0,0.1-0.1c0,0.1,0,0.2,0.1,0.3c0,0,0,0,0,0c0,0,0,0,0,0
		c0,0,0,0,0,0c-0.1-0.2-0.1-0.3-0.1-0.4c0-0.2,0-0.4-0.1-0.6c0,0,0,0,0,0c0.1,0.1,0.1,0.3,0.1,0.5c0-0.1-0.1-0.2-0.1-0.2
		c0,0,0,0,0,0c0,0.2,0,0.3,0,0.3c-0.1-0.2-0.1-0.3,0-0.3c0-0.1,0-0.2,0-0.4c0,0,0-0.1,0-0.1c0,0,0,0,0,0.1c0-0.1,0-0.2,0-0.3
		c0-0.5,0-0.9,0-1.4c0-0.1,0-0.2,0-0.2c0.3-1.5,0.7-3,1.3-4.4c0-0.1,0.1-0.2,0.1-0.4c0.1-0.3,0.3-0.6,0.4-0.9
		c0.4-0.9,0.9-1.8,1.4-2.6c0.6-1,1.1-1.9,1.8-2.9c6.8,1.5,13.8,2.3,20.7,2.5C184.4,186.7,183.1,187.6,181.7,188.4z M202.3,173.3
		c-1.4,0.1-2.8,0.2-4.2,0.3c-4.5,0.3-8.9,0.4-13.4,0.2c-2.2-0.1-4.4-0.2-6.5-0.5c-1-0.1-2.1-0.2-3.1-0.4c0,0,1.1,0.2,0.4,0
		c-0.2,0-0.5-0.1-0.7-0.1c-0.6-0.1-1.1-0.2-1.7-0.3c0.7-0.9,1.4-1.8,2.2-2.7c2.2-2.8,4.5-5.6,6.7-8.3c2.5-3.1,5.1-6.3,7.7-9.4
		c4.1-4.7,8.6-9.2,13.1-13.6c0.3,0.6,0.6,1.1,0.9,1.7c2.1,3.7,4.3,7.4,6,11.4c0,0.1,0.1,0.1,0.1,0.2c0,0.1,0.1,0.2,0.1,0.3
		c0.2,0.5,0.4,0.9,0.5,1.4c0.4,1.1,0.8,2.1,1.1,3.2c0.6,1.9,1.1,3.8,1.6,5.7C209.7,166.4,206.1,169.9,202.3,173.3z M222.3,151.5
		c-0.2-0.4-0.3-0.9-0.4-1.3c-1.7-4.4-3.7-8.8-6.1-12.9c-1.4-2.3-2.6-4.6-3.9-7c1.7-1.5,3.4-3,5.1-4.5c3.3,0.9,6.7,1.7,10,2.5
		c1.7,0.4,3.4,0.8,5.1,1.2c0.4,0.5,0.9,1,1.3,1.5c0.2,0.2,0.4,0.5,0.6,0.8c0,0,0,0.1,0.1,0.1c0.3,0.4,0.6,0.8,0.9,1.3
		c-2.5,3.8-5,7.6-7.5,11.4c-1.1,1.6-2.2,3.2-3.4,4.8C223.3,150.1,222.8,150.8,222.3,151.5z M227.6,169.2
		C227.6,169.2,227.6,169.1,227.6,169.2c-0.5-1.3-0.9-2.5-1.3-3.7c1.6-1.9,3.2-3.8,4.7-5.8c3.3-4.3,6.4-8.9,9.4-13.5
		c0.5,1.3,1.1,2.6,1.6,3.9c1.1,2.5,2.1,4.9,3.3,7.4c-1.2,1.8-2.5,3.6-3.8,5.3c-0.9,1.3-1.8,2.6-2.8,3.9c-0.8,0.2-1.5,0.4-2.3,0.6
		C233.5,167.9,230.6,168.5,227.6,169.2z M266.9,220.9c0,0,0.1,0,0.1,0C267,220.9,266.9,220.9,266.9,220.9z M267.1,221
		C267.1,221,267.1,221,267.1,221C267.5,221,268.1,221.1,267.1,221z M271.7,221C271,221.1,271.3,221.1,271.7,221L271.7,221z
		 M278.9,213.8C278.9,213.8,278.9,213.8,278.9,213.8c-0.1,0.3-0.1,0.7-0.2,1c-0.1,0.4-0.2,0.8-0.3,1.2c0,0.1-0.2,0.4-0.2,0.7
		c-0.1,0.2-0.2,0.5-0.3,0.5c-0.2,0.3-0.3,0.6-0.5,0.9c0,0-0.1,0.1-0.1,0.2c-0.3,0.3-0.5,0.6-0.8,0.8c0,0-0.1,0.1-0.2,0.2
		c-0.1,0.1-0.8,0.5-0.9,0.6c-0.1,0.1-0.6,0.3-0.9,0.4c-0.2,0.1-0.5,0.2-0.7,0.2c-0.5,0.1-0.9,0.3-1.4,0.4c-0.1,0-0.2,0-0.4,0.1
		c-0.8-0.1-1.9,0.1-2.8,0.1c-0.5,0-1.1,0-1.6-0.1c0,0-0.3,0-0.5-0.1c-1-0.2-2-0.4-3.1-0.7c-0.5-0.2-1-0.3-1.5-0.5
		c-0.2-0.1-1.5-0.5-0.8-0.3c0.8,0.2-0.1-0.1-0.3-0.2c-0.2-0.1-0.4-0.2-0.6-0.3c-0.5-0.3-1.1-0.6-1.6-0.9c-0.4-0.2-0.7-0.4-1.1-0.7
		c-0.2-0.2-0.5-0.3-0.7-0.5c0,0-0.1-0.1-0.2-0.2c-0.2-0.1-0.4-0.3-0.5-0.4c-0.4-0.4-0.8-0.7-1.2-1.1c-1.4-1.3-2.7-2.8-3.9-4.3
		c-0.1-0.2-0.3-0.3-0.4-0.5c-0.4-0.5,0.3,0.4,0.3,0.4c-0.3-0.3-0.6-0.8-0.9-1.2c-0.6-0.8-1.1-1.6-1.7-2.4c-2.3-3.4-4.5-7-6.7-10.5
		c-1.9-3-3.7-6-5.5-9c3-3.3,5.9-6.8,8.7-10.3c0.8-0.2,1.6-0.3,2.4-0.5c0.5-0.1,0.9-0.2,1.4-0.2c0.3-0.1,0.6-0.1,0.9-0.1c0,0,0,0,0,0
		c0.1,0,0.2,0,0.2,0c0.3,0,0.6-0.1,0.9-0.1c0.5-0.1,1.1-0.1,1.6-0.1c0.8,0,1.6-0.1,2.4,0c3.3,5.4,7,10.6,11.2,15.3
		c3.4,3.9,7.2,7.4,11.2,10.7c0.2,0.9,0.5,1.8,0.7,2.7c0.2,0.8,0.3,1.6,0.5,2.4c0,0.1,0,0.2,0,0.3c0-0.1,0-0.2,0-0.3
		c0,0.4,0.1,0.9,0.1,1.3C279,210.4,279,212.1,278.9,213.8z M299.3,188.2c5.9,7.3,11.7,14.6,17.6,21.9c1.5,1.9,3,3.8,4.5,5.6
		c0,0,0,0,0,0c-0.1,0-0.1,0-0.2-0.1c-0.5-0.2-1-0.4-1.5-0.6c-0.2-0.1-0.5-0.2-0.7-0.3c-1.9-0.8-3.7-1.8-5.6-2.8
		c-3.6-2-7.2-4.2-10.6-6.5c-3.6-2.4-7.2-4.8-10.7-7.3c-1.3-0.9-2.7-1.8-4-2.8c-3.9-13-11-26.4-24.8-30.2c-0.2-0.1-0.5-0.1-0.7-0.2
		c-1.2-2.2-2.4-4.4-3.5-6.7c2.2-3.4,4.4-6.9,6.4-10.4c0.2-0.4,0.4-0.7,0.6-1.1C277.2,160.7,288.2,174.5,299.3,188.2z M277,90.3
		c0,0.1,0,0.2,0,0.2c-0.1,0.4-0.2,0.8-0.3,1.3c-0.3,1.1-0.6,2.1-0.9,3.2c-0.6,1.9-1.2,3.8-1.8,5.7c-1.3,3.8-2.6,7.5-4.1,11.2
		c-0.4,0.9-0.7,1.8-1.1,2.7c-0.2,0.5-0.4,1-0.6,1.4c0,0,0,0.1,0,0.1c-0.1,0.2-0.2,0.5-0.2,0.5c-0.8,1.8-1.6,3.7-2.4,5.5
		c-0.1,0.2-0.2,0.4-0.3,0.7c-0.7-0.1-1.4-0.1-2.1-0.2c-0.8-0.1-1.5-0.2-2.3-0.3c-0.3-0.3-0.5-0.5-0.8-0.8c-0.9-0.9-1.9-1.8-2.9-2.7
		c0.3-0.7,0.7-1.4,1-2.1c3.4-7.3,5.6-15.1,5.1-23.2c0,0,0-0.1,0-0.1c0.7-0.2,1.3-0.5,2-0.7c1.8-0.6,3.6-1.1,5.5-1.6
		c0.9-0.2,1.7-0.4,2.6-0.6c0.4-0.1,0.8-0.2,1.2-0.2c0,0,0,0,0.1,0c0,0,0.1,0,0.1,0c0.7-0.1,1.5-0.1,2.2,0
		C277,90.2,277,90.2,277,90.3C277,90.3,277,90.3,277,90.3z M463.5,170.1c-0.8,1-1.7,1.7-2.8,2.3c-1.1,0.6-2.3,0.9-3.6,1.1
		c-1.3,0.2-2.6,0.3-3.8,0.3c-1.2,0-2.7-0.2-4.6-0.7s-3.6-1.2-5.4-2.4c-1.8-1.1-3.3-2.6-4.6-4.4c-1.3-1.8-1.9-4.1-1.9-7c0,0,0,0,0,0
		c0,0,0,0,0,0c0-1.9,0.3-3.9,0.9-5.8c0.6-2,1.4-3.8,2.5-5.4c1.1-1.6,2.3-2.9,3.6-4c1.3-1,2.7-1.5,4.3-1.5h1.2
		c-2,0.8-3.9,2.1-5.5,3.9c-1.7,1.8-2.5,3.6-2.5,5.4c0,1.2,0.9,2.6,2.7,4c1.8,1.5,4,2.9,6.5,4.3c2.5,1.4,5.2,2.6,7.9,3.7
		c2.7,1.1,5,1.9,6.7,2.3C464.8,167.9,464.3,169.1,463.5,170.1z M462.3,156.7c-1.7-0.6-3.2-1.3-4.6-2.2c-1.4-0.9-2.6-1.9-3.6-3.1
		c-1-1.2-1.4-2.4-1.4-3.7c0-0.9,0.3-1.7,0.8-2.3c0.5-0.6,1.1-1.1,1.9-1.4s1.5-0.5,2.3-0.7c0.8-0.2,1.4-0.2,2.1-0.2
		c0.9,0.4,1.8,1.1,2.7,2.2c0.9,1.1,1.6,2.3,2.2,3.6c0.6,1.4,1.1,2.8,1.5,4.4c0.4,1.6,0.7,3.1,0.9,4.5
		C465.5,157.7,464,157.3,462.3,156.7z M527.6,156.4c-0.3,1.7-0.7,3.2-1.3,4.5c-0.6,1.3-1.4,2.4-2.3,3.3c-1,0.9-2.1,1.3-3.4,1.3
		c-1.9,0-3.6-0.5-5-1.4c-1.4-0.9-2.6-2.1-3.5-3.6c-0.9-1.5-1.6-3.2-2-5.2c-0.5-1.9-0.7-4-0.7-6.1c0-1.6,0.2-3.2,0.5-4.8
		c0.4-1.6,0.9-3,1.5-4.2c0.7-1.2,1.4-2.2,2.3-2.9c0.9-0.7,1.9-1.1,3-1.1c2.9,0,5.3,1,7.1,2.9c1.8,1.9,3,4.2,3.5,6.8
		c0.2,0.8,0.4,1.7,0.5,2.6c0.1,0.9,0.2,1.9,0.2,3C528,153.2,527.9,154.8,527.6,156.4z M606.8,170.1c-0.8,1-1.7,1.7-2.8,2.3
		c-1.1,0.6-2.3,0.9-3.6,1.1c-1.3,0.2-2.6,0.3-3.8,0.3c-1.2,0-2.7-0.2-4.6-0.7s-3.6-1.2-5.4-2.4c-1.8-1.1-3.3-2.6-4.6-4.4
		c-1.1-1.5-1.7-3.4-1.8-5.7c0.1-0.4,0.1-0.7,0.1-1.1c0-0.5,0-0.9-0.1-1.3c0.1-1.5,0.4-3.1,0.9-4.7c0.6-2,1.4-3.8,2.5-5.4
		c1.1-1.6,2.3-2.9,3.6-4c1.3-1,2.7-1.5,4.3-1.5h1.2c-2,0.8-3.9,2.1-5.5,3.9c-1.7,1.8-2.5,3.6-2.5,5.4c0,1.2,0.9,2.6,2.7,4
		c1.8,1.5,4,2.9,6.5,4.3c2.5,1.4,5.2,2.6,7.9,3.7c2.7,1.1,5,1.9,6.7,2.3C608.1,167.9,607.5,169.1,606.8,170.1z M605.6,156.7
		c-1.7-0.6-3.2-1.3-4.6-2.2c-1.4-0.9-2.6-1.9-3.6-3.1c-1-1.2-1.4-2.4-1.4-3.7c0-0.9,0.3-1.7,0.8-2.3c0.5-0.6,1.1-1.1,1.9-1.4
		s1.5-0.5,2.3-0.7c0.8-0.2,1.4-0.2,2.1-0.2c0.9,0.4,1.8,1.1,2.7,2.2c0.9,1.1,1.6,2.3,2.2,3.6c0.6,1.4,1.1,2.8,1.5,4.4
		c0.4,1.6,0.7,3.1,0.9,4.5C608.8,157.7,607.2,157.3,605.6,156.7z"/>
	<path d="M986.5,156.1c-0.6-1.1-1.3-1.8-2.4-2.4c-1.1-0.6-2.2-0.9-3.3-0.9c-1.5,0-2.7,0.3-3.5,0.9c-1.3,0.8-2.7,1.8-4.2,3
		c-1.5,1.2-3.3,1.7-5.5,1.7c-3.2,0-5.6-1.2-7.1-3.7c-1.5-2.5-2.7-5.6-3.6-9.4c-0.9-3.8-1.7-7.9-2.4-12.2c-0.8-4.4-2-8.4-3.6-12.2
		c-1.6-3.8-4-6.9-7.1-9.4c-3.1-2.5-7.5-3.7-13.1-3.7c-3.5,0-6.8,1-9.9,3c-3,2-5.8,4.7-8.4,7.9c0.2-4.6,0.4-9.2,0.7-13.8
		c0.3-4.7,0.5-9.6,0.8-14.7c0.3-5.2,0.5-10.7,0.7-16.5c0.2-5.8,0.3-12.1,0.3-18.9c0-1.7-0.1-3.3-0.2-4.8c-0.1-1.5-0.4-2.7-1-3.8
		c-0.6-1.1-1.5-1.9-2.7-2.4c-1.3-0.6-3-0.8-5.2-0.8c-1.6,0-3,0.3-4.2,1c-1.2,0.7-1.8,1.8-1.9,3.6c-0.5,12.9-1,24.6-1.4,35.1
		c-0.4,10.5-0.8,20.1-1.2,28.6c-0.4,8.5-0.8,16.1-1.2,22.9c-0.4,6.7-0.8,12.7-1.2,17.9c-0.2,1.8-0.3,3.6-0.4,5.4
		c-1.2,1.3-2.4,2.5-3.5,3.7c-1.9,2-3.9,3.8-6.2,5.3c-2.2,1.5-4.8,2.7-7.7,3.6c-2.9,0.9-6.5,1.4-10.7,1.4c-4.3,0-8-0.7-11.1-2.1
		c-3.1-1.4-5.8-3.2-7.8-5.5c-2.1-2.2-3.6-4.7-4.6-7.4c-1-2.7-1.5-5.3-1.5-7.8c0-3.7,0.5-7,1.4-9.7c1-2.7,2.2-5,3.6-6.7
		c1.5-1.7,3.1-3,4.8-3.9c1.7-0.9,3.4-1.3,5-1.3c2.3,0,4.2,0.5,5.6,1.5c1.4,1,2.5,2.3,3.3,3.8c0.8,1.5,1.3,3.2,1.5,5.1
		c0.3,1.9,0.4,3.6,0.4,5.2c0,1.6,0.4,3.1,1.3,4.4c0.9,1.3,2.6,2,5.2,2c2.5,0,4.3-0.7,5.3-2.1c1-1.4,1.5-3.3,1.5-5.6
		c0-3.7-0.5-7.3-1.5-10.6c-1-3.3-2.5-6.3-4.3-8.7c-1.9-2.5-4.1-4.4-6.6-5.9c-2.5-1.4-5.3-2.1-8.4-2.1c-6.5,0-11.8,1.1-15.9,3.4
		s-7.3,5.1-9.6,8.6c-2.3,3.4-3.9,7.2-4.8,11.2c-0.9,4-1.3,7.7-1.3,11.2c0,2.9,0.3,5.7,0.8,8.2c-1.9,1.5-3.8,3-5.6,4.5
		c-2.6,2.1-5.2,3.9-8,5.5c-2.7,1.6-5.5,2.9-8.4,4c-2.8,1-5.8,1.5-9,1.5c-2,0-4.1-0.1-6.2-0.4c-2.1-0.3-4.1-0.7-6-1.4
		c-1.9-0.7-3.7-1.7-5.4-3c-1.7-1.3-3.1-3-4.3-5c4.2-2.5,8.1-5.2,11.7-7.9s6.7-5.7,9.2-9c2.5-3.3,4.2-6.9,5.2-10.8
		c1-3.9,1-8.3,0-13.1c-0.4-1.6-1-3.2-1.9-4.6c-0.9-1.5-2-2.7-3.4-3.8c-1.4-1.1-3.2-1.9-5.3-2.4c-2.1-0.6-4.6-0.7-7.4-0.5
		c-4.6,0.3-8.5,1.6-11.9,4c-3.3,2.3-6.1,5.3-8.4,9c-2.2,3.7-3.8,7.9-4.9,12.6c-1,4.7-1.5,9.5-1.4,14.5c0.1,3,0.4,5.9,1.1,8.6
		c-0.4,0.7-0.9,1.4-1.4,2.1c-1,1.6-2.2,3.1-3.5,4.5c-1.3,1.4-2.8,2.6-4.6,3.6c-1.7,1-3.7,1.4-6.1,1.4c-4,0-7.4-1.4-10.4-4.3
		c-3-2.8-5.5-6.6-7.4-11.2c-2-4.7-3.5-9.9-4.7-15.8c-1.2-5.9-1.9-11.8-2.2-17.8l16.9,0.2c4.1,0,7.1-0.5,9-1.4s3.2-2.1,3.7-3.6
		c0.2-1-0.1-2.4-0.9-4c-0.8-1.7-1.8-2.6-3-2.7c-2.6,0-5,0-7.2,0c-2.2,0-4.3,0-6.3,0c-2,0-4.1,0-6.3-0.1c-2.2-0.1-4.6-0.1-7.2-0.1
		c-0.1-1.4-0.2-3-0.3-4.6c-0.1-1.7-0.2-3.3-0.3-5c-0.1-1.7-0.2-3.3-0.4-4.8c-0.2-1.5-0.3-2.9-0.4-4.1c-0.3-2.3-0.6-4-0.8-5
		c-0.2-1-0.9-1.6-2.1-1.8c-1.4-0.2-2.8-0.2-4,0c-1.3,0.2-2.6,0.3-3.9,0.3c-1,0-1.7,0.5-2.1,1.6c-0.4,1.1-0.5,2.1-0.5,3.1
		c0,1.4,0.1,3,0.2,4.8c0.1,1.8,0.2,3.6,0.4,5.5c0.2,1.9,0.3,3.7,0.5,5.5c0.2,1.8,0.3,3.4,0.5,4.7c-2,0.2-3.8,0.4-5.5,0.5
		c-1.6,0.2-3,1-4.3,2.5c-0.4,0.5-0.6,1.4-0.5,2.7c0.1,1.3,0.2,2.3,0.3,3c0.1,0.7,0.5,1.2,1.1,1.5c0.7,0.3,1.5,0.5,2.4,0.7
		c1,0.2,2.1,0.3,3.3,0.3c1.3,0.1,2.6,0.1,4,0.2c0.7,9.3,2,17.8,3.7,25.5c1.8,7.6,4.2,14.2,7.3,19.7c3.1,5.5,6.9,9.7,11.4,12.8
		c4.5,3,9.8,4.6,16,4.6c4,0,7.6-0.7,10.7-2.1c3.1-1.4,5.8-3.1,8.1-5.2c1.4-1.2,2.6-2.5,3.7-3.9c1.3,1.6,2.8,3.1,4.4,4.4
		c3.7,3,8,5.3,12.8,6.8c4.8,1.5,9.9,2.1,15.1,1.7c8.7-0.7,16.5-2.6,23.2-5.8c4.8-2.2,9.5-5.5,14-9.7c1.6,2.1,3.4,3.9,5.3,5.6
		c3.6,3,7.6,5.3,12,6.8c4.4,1.5,8.6,2.3,12.6,2.3c4.1,0,8.1-0.5,12.2-1.6c4-1.1,7.9-2.5,11.5-4.4c2.1-1.1,4.2-2.3,6.1-3.6
		c0.2,2.3,0.3,4.5,0.5,6.7c0,0.3,0,0.6,0.1,1c0.1,0.4,0.1,0.7,0.1,1c0.2,1.6,1,2.8,2.4,3.6c1.4,0.8,3.1,1.1,5.1,1.1
		c2,0,3.8-0.5,5.4-1.4c1.6-1,2.4-2.5,2.4-4.5c0-5-0.2-9.4-0.6-13.4c-0.4-4-0.6-7.1-0.6-9.4c0-3.8,0.6-8.2,1.7-13.1
		c1.1-4.9,3-9.6,5.6-14.2c1.5-2.5,3.3-4.7,5.3-6.6c2-1.9,4.1-2.8,6.1-2.8c3.5,0,6.3,1.2,8.1,3.6c1.9,2.4,3.3,5.5,4.4,9.2
		c1.1,3.7,2,7.7,2.8,11.9c0.8,4.3,2,8.2,3.6,11.9c1.6,3.7,3.7,6.8,6.5,9.2c2.8,2.4,6.7,3.6,11.6,3.6c3.7,0,7.4-0.5,10.9-1.4
		c3.5-0.9,6.8-3.3,9.9-7.1c0.9-1.2,1.4-2.6,1.4-4.3C987.3,158.3,987,157.2,986.5,156.1z M772.1,142.7c0.3-2.9,0.8-5.7,1.7-8.4
		c0.9-2.6,2.1-5,3.6-7.1c1.5-2.1,3.4-3.5,5.6-4.2c1.4-0.5,2.8-0.5,4.1,0.2c1.3,0.6,2.1,1.7,2.3,3.3c0.1,2.3-0.3,4.6-1.2,6.9
		c-0.9,2.3-2.2,4.4-3.7,6.5c-1.6,2-3.4,4-5.5,5.8c-2.1,1.8-4.3,3.5-6.5,5C771.9,148.3,771.8,145.6,772.1,142.7z"/>
	<path d="M107.3,60.9C107.3,60.9,107.3,60.9,107.3,60.9c0.1,0.1,0.3,0.2,0.4,0.4C107.7,61.3,107.5,61.1,107.3,60.9z"/>
	<polygon points="160.4,197.4 160.4,197.4 160.4,197.4 	"/>
	<path d="M160.4,197.4C160.4,197.4,160.4,197.4,160.4,197.4C160.4,197.4,160.4,197.4,160.4,197.4
		C160.4,197.4,160.4,197.4,160.4,197.4C160.4,197.4,160.4,197.4,160.4,197.4z"/>
	<path d="M160.4,197.4c0.2,0,0.3,0.1,0.5,0.2C160.8,197.5,160.6,197.4,160.4,197.4C160.4,197.4,160.4,197.4,160.4,197.4z"/>
	<path d="M278.7,207.7C278.8,208.7,278.8,208.2,278.7,207.7L278.7,207.7z"/>
	<path d="M247.3,81.9c-0.1-0.1-0.1-0.2-0.2-0.3C247.2,81.8,247.3,81.9,247.3,81.9C247.3,82,247.3,82,247.3,81.9z"/>
	<path d="M168.4,195.1C168.4,195,168.4,195,168.4,195.1C168.8,194.9,169.6,194.5,168.4,195.1z"/>
	<path d="M204.6,44C204.6,44,204.5,44,204.6,44c-0.2,0-0.4-0.1-0.6-0.1c0,0,0,0,0,0C204.4,44.1,204.7,44.1,204.6,44z"/>
	<path d="M244.3,78.8C244.3,78.8,244.3,78.8,244.3,78.8C243.9,78.5,243.3,78.4,244.3,78.8z"/>
	<path d="M105.3,57.6C105.3,57.6,105.3,57.6,105.3,57.6C105.3,57.7,105.3,57.7,105.3,57.6c0-0.2-0.1-0.4-0.1-0.4
		C105.2,57.4,105.2,57.5,105.3,57.6z"/>
	<path d="M117.4,49.3C117.4,49.3,117.3,49.3,117.4,49.3c-0.2,0-0.4,0.1-0.5,0.1C116.6,49.5,116.7,49.6,117.4,49.3z"/>
	<path d="M105.8,53.4c-0.1,0-0.1,0.1-0.2,0.1C105.7,53.5,105.7,53.5,105.8,53.4C105.8,53.4,105.8,53.4,105.8,53.4z"/>
	<path d="M104.8,54.4c0,0.1-0.1,0.2-0.1,0.2c0,0,0,0.1,0,0.1C104.8,54.6,104.9,54.5,104.8,54.4C104.9,54.3,104.9,54.4,104.8,54.4z"
		/>
</g>
</svg>
