<svg id="Capa_1" data-name="Capa 1" xmlns="http://www.w3.org/2000/svg" xmlns:xlink="http://www.w3.org/1999/xlink" viewBox="0 0 299.53 126.8"><defs><style>.cls-1{fill:none;}.cls-2{fill:#fff;}.cls-3{clip-path:url(#clip-path);}.cls-4{clip-path:url(#clip-path-2);}</style><clipPath id="clip-path"><path class="cls-1" d="M18.55,28.45a29.89,29.89,0,0,0-4.87,16.39H0A43.51,43.51,0,0,1,5.73,23.21Z"/></clipPath><clipPath id="clip-path-2"><rect class="cls-1" x="120.81" y="37.72" width="29.11" height="13.68"/></clipPath></defs><path class="cls-2" d="M138.87,89.06a44.63,44.63,0,1,1,48.91-44.43h0a6.84,6.84,0,0,1-6.84,6.84l-31-.09V37.7l23.41.09A31,31,0,1,0,139.74,75.4a3.84,3.84,0,0,1,3.4,3.83v6A3.88,3.88,0,0,1,138.87,89.06Z"/><path class="cls-2" d="M243.08,90.93a45.47,45.47,0,1,1,45.46-45.47A45.52,45.52,0,0,1,243.08,90.93Zm0-77.25a31.79,31.79,0,1,0,31.78,31.78A31.82,31.82,0,0,0,243.08,13.68Z"/><g class="cls-3"><rect class="cls-2" y="31.32" width="18.55" height="13.52"/><rect class="cls-2" y="23.21" width="18.55" height="8.11"/></g><path class="cls-2" d="M18.51,28.51A30.09,30.09,0,0,1,43.17,14.85C60,14.57,73.73,28.77,73.73,45.58V84.9a3.82,3.82,0,0,0,3.83,3.83h6a3.82,3.82,0,0,0,3.82-3.83V45.72c0-23.88-18.8-44-42.67-44.54A43.75,43.75,0,0,0,5.69,23.27Z"/><g class="cls-4"><rect class="cls-2" x="120.81" y="37.72" width="22.85" height="13.68"/><rect class="cls-2" x="143.65" y="37.72" width="6.27" height="13.68"/></g><circle class="cls-2" cx="230.97" cy="113.94" r="0.75"/><circle class="cls-2" cx="235.05" cy="121.02" r="0.75"/><path class="cls-2" d="M235.81,119v-3a.76.76,0,1,0-1.51,0v3a.76.76,0,0,0,1.51,0Z"/><circle class="cls-2" cx="233.01" cy="115.98" r="0.75"/><path class="cls-2" d="M232.26,118v3.82a.75.75,0,1,0,1.5,0V118a.75.75,0,1,0-1.5,0Z"/><circle class="cls-2" cx="239.14" cy="113.94" r="0.75"/><path class="cls-2" d="M237.1,113.19H233a.76.76,0,1,0,0,1.51h4.09a.76.76,0,0,0,0-1.51Z"/><circle class="cls-2" cx="222.79" cy="113.94" r="0.75"/><path class="cls-2" d="M224.83,114.7h4.09a.76.76,0,0,0,0-1.51h-4.09a.76.76,0,0,0,0,1.51Z"/><circle class="cls-2" cx="230.96" cy="105.77" r="0.75"/><path class="cls-2" d="M230.21,107.81v4.09a.76.76,0,0,0,1.51,0v-4.09a.76.76,0,0,0-1.51,0Z"/><circle class="cls-2" cx="230.96" cy="122.12" r="0.75"/><path class="cls-2" d="M231.72,120.07V116a.76.76,0,1,0-1.51,0v4.08a.76.76,0,1,0,1.51,0Z"/><circle class="cls-2" cx="233.01" cy="115.98" r="0.75"/><path class="cls-2" d="M238.88,115.23H237.1a.76.76,0,1,0,0,1.51h1.78a.76.76,0,1,0,0-1.51Z"/><circle class="cls-2" cx="226.88" cy="106.86" r="0.75"/><path class="cls-2" d="M226.12,108.9v3a.76.76,0,0,0,1.51,0v-3a.76.76,0,0,0-1.51,0Z"/><path class="cls-2" d="M229.67,109.85V106a.75.75,0,1,0-1.5,0v3.82a.75.75,0,0,0,1.5,0Z"/><circle class="cls-2" cx="228.92" cy="111.9" r="0.75"/><path class="cls-2" d="M223.05,112.65h1.78a.76.76,0,1,0,0-1.51h-1.78a.76.76,0,1,0,0,1.51Z"/><path class="cls-2" d="M224.08,108.54v1.31a.76.76,0,1,0,1.51,0v-1.31a.76.76,0,0,0-1.51,0Z"/><path class="cls-2" d="M237.85,119.34V118a.76.76,0,0,0-1.51,0v1.31a.76.76,0,0,0,1.51,0Z"/><circle class="cls-2" cx="238.05" cy="109.85" r="0.75"/><path class="cls-2" d="M236,109.1h-3a.76.76,0,0,0,0,1.51h3a.76.76,0,0,0,0-1.51Z"/><circle class="cls-2" cx="233.01" cy="111.9" r="0.75"/><path class="cls-2" d="M235.05,112.65h3.83a.76.76,0,0,0,0-1.51h-3.83a.76.76,0,0,0,0,1.51Z"/><circle class="cls-2" cx="233.01" cy="111.9" r="0.75"/><path class="cls-2" d="M232.26,106v1.79a.75.75,0,0,0,1.5,0V106a.75.75,0,1,0-1.5,0Z"/><circle class="cls-2" cx="223.88" cy="118.03" r="0.75"/><path class="cls-2" d="M225.93,118.78h3a.75.75,0,0,0,0-1.5h-3a.75.75,0,1,0,0,1.5Z"/><path class="cls-2" d="M226.88,115.23h-3.83a.76.76,0,0,0,0,1.51h3.83a.76.76,0,0,0,0-1.51Z"/><circle class="cls-2" cx="228.92" cy="115.98" r="0.75"/><path class="cls-2" d="M229.67,121.86v-1.79a.75.75,0,0,0-1.5,0v1.79a.75.75,0,0,0,1.5,0Z"/><path class="cls-2" d="M225.57,120.83h1.31a.76.76,0,0,0,0-1.51h-1.31a.76.76,0,1,0,0,1.51Z"/><path class="cls-2" d="M236.37,107.06h-1.32a.75.75,0,0,0,0,1.5h1.32a.75.75,0,0,0,0-1.5Z"/><path class="cls-2" d="M242,118.8a2.57,2.57,0,0,1,2.66-2.64,3,3,0,0,1,1.37.33V117a2.43,2.43,0,0,0-1.37-.41,2.16,2.16,0,0,0-1.61.64,2.24,2.24,0,0,0,1.64,3.83,2.41,2.41,0,0,0,1.43-.45v.48a2.72,2.72,0,0,1-1.45.37A2.55,2.55,0,0,1,242,118.8Z"/><path class="cls-2" d="M247.14,121.35v-5.11h.44v2.26h3.09v-2.26h.43v5.11h-.43v-2.46h-3.09v2.46Z"/><path class="cls-2" d="M252.37,121.35v-5.11h.43v5.11Z"/><path class="cls-2" d="M254.07,121.35v-5.11h.43v2.26h3.1v-2.26H258v5.11h-.43v-2.46h-3.1v2.46Z"/><path class="cls-2" d="M259.68,120.79a1.88,1.88,0,0,1-.35-.77,5.6,5.6,0,0,1-.09-1.1v-2.68h.43v2.65a2.81,2.81,0,0,0,.35,1.63,1.44,1.44,0,0,0,1.22.51,1.39,1.39,0,0,0,1.27-.6,3.1,3.1,0,0,0,.27-1.53v-2.66h.42v2.64a6.28,6.28,0,0,1-.08,1.08,1.89,1.89,0,0,1-.28.73,2.16,2.16,0,0,1-3.16.1Z"/><path class="cls-2" d="M263.75,121.35l2.13-5.11h.41l2.14,5.11H268l-.63-1.52h-2.51l-.62,1.52Zm3.42-1.92-.52-1.26c-.2-.5-.39-1-.56-1.41h0c-.17.46-.36.92-.56,1.4l-.52,1.27Z"/><path class="cls-2" d="M269.14,121.35v-5.11h.43v2.26h3.09v-2.26h.44v5.11h-.44v-2.46h-3.09v2.46Z"/><path class="cls-2" d="M274.75,120.79a1.76,1.76,0,0,1-.35-.77,5.51,5.51,0,0,1-.1-1.1v-2.68h.43v2.65a2.72,2.72,0,0,0,.36,1.63,1.43,1.43,0,0,0,1.21.51,1.38,1.38,0,0,0,1.27-.6,3,3,0,0,0,.28-1.53v-2.66h.42v2.64a6.28,6.28,0,0,1-.08,1.08,2.06,2.06,0,0,1-.28.73,2.16,2.16,0,0,1-3.16.1Z"/><path class="cls-2" d="M278.82,121.35l2.12-5.11h.41l2.14,5.11H283l-.63-1.52h-2.51l-.63,1.52Zm3.42-1.92-.52-1.26-.57-1.41h0l-.56,1.4-.53,1.27Z"/><path class="cls-2" d="M244.13,111.76v0a.92.92,0,0,0,.3.74,3.07,3.07,0,0,0,2.59.24.9.9,0,0,0,.5-.77c0-.18-.06-.47-.54-.66a8.22,8.22,0,0,0-1.06-.25l-1.12-.18a3.93,3.93,0,0,1-2.31-.84,1.76,1.76,0,0,1-.43-1.23,2.15,2.15,0,0,1,1.06-2,4.75,4.75,0,0,1,2.52-.55,5.28,5.28,0,0,1,2.69.51,1.92,1.92,0,0,1,1,1.88h-2.05a.81.81,0,0,0-.46-.71,3.38,3.38,0,0,0-1.23-.21,2.16,2.16,0,0,0-1.06.21.81.81,0,0,0-.39.67c0,.36.3.5.56.59a5.8,5.8,0,0,0,1.32.27l.88.15a4.63,4.63,0,0,1,2,.64,2,2,0,0,1,.78,1.68,2.19,2.19,0,0,1-.9,1.87,4.52,4.52,0,0,1-2.72.6c-1.24,0-2.61-.08-3.41-.91a2.47,2.47,0,0,1-.62-1.77v0Z"/><path class="cls-2" d="M250.3,108.09v-1.54h7.4v1.54H255v6.17h-2v-6.17Z"/><path class="cls-2" d="M258.89,114.26h-2.11l3.46-7.71h2l3.46,7.71h-2.11l-.68-1.57h-3.33Zm3.53-2.89-1.19-2.88-1.17,2.88Z"/><path class="cls-2" d="M266.62,106.55h4.56a3.54,3.54,0,0,1,2.5.69,2,2,0,0,1,.53,1.47,1.82,1.82,0,0,1-.5,1.36,2.18,2.18,0,0,1-1,.54v0a1.56,1.56,0,0,1,.91.46,1.63,1.63,0,0,1,.38,1.17l.06.87a2.09,2.09,0,0,0,.32,1.1h-2.15a1.69,1.69,0,0,1-.3-1l0-.64a1.35,1.35,0,0,0-.36-.94,1.66,1.66,0,0,0-1-.27h-1.89v2.83h-2Zm2.2,3.42H271a1.44,1.44,0,0,0,1.07-.31.92.92,0,0,0,.25-.66.91.91,0,0,0-.37-.75,2.38,2.38,0,0,0-1-.16h-2.13Z"/><path class="cls-2" d="M275.16,108.09v-1.54h7.4v1.54h-2.69v6.17h-2v-6.17Z"/><path class="cls-2" d="M291.16,111.23a3.07,3.07,0,0,1-.78,2.32,5.58,5.58,0,0,1-6.11,0,3.12,3.12,0,0,1-.78-2.32v-4.68h2V111a2,2,0,0,0,.43,1.42,1.87,1.87,0,0,0,1.38.43,1.92,1.92,0,0,0,1.37-.43,2,2,0,0,0,.43-1.42v-4.47h2Z"/><path class="cls-2" d="M296.22,106.55a3.54,3.54,0,0,1,2.59.69,2.38,2.38,0,0,1,.72,1.84,2.53,2.53,0,0,1-.63,1.83,3.54,3.54,0,0,1-2.81.8h-2v2.55h-2v-7.71Zm-2.1,3.67H296a1.91,1.91,0,0,0,1.2-.32,1.15,1.15,0,0,0,.28-.8.92.92,0,0,0-.37-.79,1.62,1.62,0,0,0-1-.22h-1.95Z"/><path class="cls-2" d="M160.78,117.48V110h3.27c1.62,0,2.53.75,2.53,2.19s-.93,2.2-2.53,2.2H161.7v3.12Zm.92-3.89H164c1.07,0,1.64-.48,1.64-1.43s-.57-1.41-1.64-1.41H161.7Z"/><path class="cls-2" d="M167.15,114.92v-.25a2.63,2.63,0,0,1,2.64-2.7,2.56,2.56,0,0,1,2.64,2.7v.25a2.56,2.56,0,0,1-2.64,2.71A2.59,2.59,0,0,1,167.15,114.92Zm4.35.07v-.38a1.72,1.72,0,1,0-3.41,0V115a1.72,1.72,0,1,0,3.41,0Z"/><path class="cls-2" d="M178.55,116.52h0l1.3-4.4h.86l-1.63,5.36h-1l-1.28-4.17h-.05l-1.28,4.17h-1l-1.63-5.36h.86l1.31,4.4h0l1.34-4.4h.86Z"/><path class="cls-2" d="M181.11,114.93v-.27a2.62,2.62,0,0,1,2.65-2.69,2.56,2.56,0,0,1,2.65,2.69v.28H182V115a1.77,1.77,0,0,0,1.72,1.9,1.69,1.69,0,0,0,1.6-1.18h.92a2.46,2.46,0,0,1-2.52,1.88A2.59,2.59,0,0,1,181.11,114.93Zm4.36-.63a1.71,1.71,0,0,0-3.41,0Z"/><path class="cls-2" d="M187.36,117.48v-5.36h.86l.07.9h.05a1.76,1.76,0,0,1,.84-.84,2.64,2.64,0,0,1,1.09-.21h.09v.84h-.09a3,3,0,0,0-.94.08,1.72,1.72,0,0,0-1,1.74v2.85Z"/><path class="cls-2" d="M190.6,114.93v-.27a2.62,2.62,0,0,1,2.65-2.69,2.56,2.56,0,0,1,2.65,2.69v.28h-4.37V115a1.77,1.77,0,0,0,1.72,1.9,1.69,1.69,0,0,0,1.6-1.18h.92a2.47,2.47,0,0,1-2.52,1.88A2.59,2.59,0,0,1,190.6,114.93Zm4.35-.63a1.71,1.71,0,0,0-3.41,0Z"/><path class="cls-2" d="M196.6,114.93v-.26a2.43,2.43,0,0,1,2.33-2.71,2,2,0,0,1,1.83,1.05h.05v-3h.92v7.51h-.86l-.06-.9h-.05a2,2,0,0,1-1.83,1.06A2.43,2.43,0,0,1,196.6,114.93Zm4.17.21v-.68a1.63,1.63,0,0,0-1.64-1.79,1.75,1.75,0,0,0-1.61,2V115a1.76,1.76,0,0,0,1.61,2A1.64,1.64,0,0,0,200.77,115.14Z"/><path class="cls-2" d="M205.4,117.48V110h3.51c1.45,0,2.26.69,2.26,1.9a1.85,1.85,0,0,1-1.13,1.7v0a2.06,2.06,0,0,1,1.37,1.86,2,2,0,0,1-2.3,2Zm.92-4.22h2.48a1.33,1.33,0,0,0,1.48-1.33c0-.77-.5-1.18-1.48-1.18h-2.48Zm0,3.45h2.75a1.25,1.25,0,0,0,1.41-1.31A1.42,1.42,0,0,0,209,114h-2.68Z"/><path class="cls-2" d="M214.55,116.47h0l1.78-4.35h1l-2.62,6.21a1.93,1.93,0,0,1-2,1.3h-.32v-.77h.27a1.13,1.13,0,0,0,1.14-.76l.24-.54-2.29-5.44h1Z"/></svg>